<?xml version="1.0" standalone="no"?>
<!DOCTYPE svg PUBLIC "-//W3C//DTD SVG 20010904//EN"
 "http://www.w3.org/TR/2001/REC-SVG-20010904/DTD/svg10.dtd">
<svg version="1.0" xmlns="http://www.w3.org/2000/svg"
 width="499.000000pt" height="433.000000pt" viewBox="0 0 499.000000 433.000000"
 preserveAspectRatio="xMidYMid meet">

<g transform="translate(0.000000,433.000000) scale(0.100000,-0.100000)"
fill="#5AAB6F" stroke="none">
<path d="M2723 4010 c-27 -28 -33 -30 -56 -19 -33 15 -72 5 -104 -27 -21 -21
-24 -32 -22 -82 3 -72 10 -91 48 -130 29 -29 31 -35 31 -104 0 -49 -6 -86 -19
-113 -25 -55 -100 -124 -201 -185 -47 -28 -93 -59 -103 -69 -17 -16 -16 -19
13 -60 17 -23 38 -45 46 -48 8 -3 38 10 67 30 70 47 119 71 201 96 77 24 113
26 185 10 77 -16 93 -33 94 -105 1 -56 4 -61 35 -82 66 -44 156 -21 235 58 32
33 37 45 37 84 0 38 4 48 30 66 21 15 30 30 30 49 0 16 7 34 15 41 21 17 19
37 -5 50 -11 6 -20 18 -20 26 0 8 -7 28 -15 45 -13 24 -14 37 -5 70 8 27 8 45
1 53 -5 6 -12 25 -15 41 -3 19 -19 41 -43 60 -21 16 -74 65 -117 108 -79 79
-79 79 -122 73 -47 -6 -74 0 -74 17 0 5 -11 25 -26 44 -34 45 -79 46 -121 3z
m47 -249 c0 -5 -7 -22 -14 -38 -8 -15 -28 -58 -45 -95 -30 -69 -57 -92 -45
-40 20 91 38 136 62 158 29 25 42 30 42 15z m83 -126 c27 -25 45 -49 42 -55
-13 -21 -145 -42 -145 -22 0 6 13 45 35 110 7 20 18 15 68 -33z m86 -191 c26
-33 27 -65 3 -94 -23 -28 -47 -24 -114 19 -55 35 -59 51 -22 80 40 32 106 29
133 -5z"/>
<path d="M2299 3902 c-19 -76 -27 -82 -136 -103 -131 -26 -226 -73 -291 -143
-27 -30 -56 -69 -64 -88 -47 -100 -59 -131 -56 -145 4 -20 78 -43 141 -43 53
0 52 -6 21 100 -8 25 -14 52 -14 60 1 22 47 -36 73 -92 12 -27 27 -48 33 -48
15 0 82 46 121 83 18 17 52 62 75 100 81 130 94 145 130 149 18 2 59 1 91 -2
69 -7 72 3 23 58 -19 21 -47 63 -62 93 -43 86 -66 92 -85 21z"/>
<path d="M3387 3882 c-10 -10 -17 -25 -17 -32 0 -9 -9 -5 -25 10 l-25 23 0
-30 c0 -41 -9 -63 -25 -63 -7 0 -15 -9 -18 -20 -4 -17 -1 -19 31 -17 21 1 52
11 70 22 30 18 32 23 31 72 -1 29 -3 53 -4 53 -1 0 -9 -8 -18 -18z"/>
<path d="M3415 3752 c-86 -53 -81 -85 30 -209 49 -54 105 -114 125 -133 121
-116 182 -170 191 -170 24 0 -6 81 -73 200 -14 25 -40 72 -58 105 -62 113
-110 194 -126 209 -20 21 -52 20 -89 -2z"/>
<path d="M2346 3611 c-3 -4 3 -16 14 -26 19 -17 19 -18 -5 -53 -26 -38 -33
-82 -14 -82 11 0 69 60 69 72 0 14 27 9 40 -7 17 -21 30 -9 30 28 0 25 -7 37
-33 55 -33 22 -91 30 -101 13z"/>
<path d="M3437 3305 l48 -46 -45 7 c-42 6 -44 5 -25 -10 19 -15 19 -17 2 -30
-15 -12 -13 -14 28 -18 27 -4 69 -21 109 -44 l64 -39 5 -57 c7 -82 32 -119 90
-137 42 -13 51 -13 82 2 47 22 68 59 67 114 -1 88 -52 127 -152 117 -60 -5
-68 -4 -92 20 -15 13 -46 53 -69 88 -23 35 -38 53 -34 41 10 -34 -9 -28 -28
10 -10 19 -15 23 -11 10 7 -29 -14 -30 -49 -3 -45 36 -40 21 10 -25z"/>
<path d="M1584 3320 c-30 -12 -49 -82 -32 -117 17 -34 34 -40 41 -13 5 20 10
21 67 14 57 -6 62 -5 58 12 -2 11 -21 25 -48 35 -41 16 -45 19 -42 48 3 33 -5
37 -44 21z"/>
<path d="M1990 3323 c-64 -22 -173 -86 -212 -124 -37 -37 -48 -56 -53 -93 -9
-55 0 -110 20 -126 21 -17 82 -4 142 30 52 30 109 91 135 145 24 49 50 144 44
160 -5 15 -45 19 -76 8z"/>
<path d="M3368 3273 c7 -3 16 -2 19 1 4 3 -2 6 -13 5 -11 0 -14 -3 -6 -6z"/>
<path d="M2590 3198 c0 -6 7 -19 16 -29 14 -16 12 -20 -30 -59 -25 -24 -46
-51 -46 -61 0 -29 40 -24 80 11 41 35 56 37 70 10 22 -41 50 -18 50 39 0 41
-63 101 -107 101 -18 0 -33 -5 -33 -12z"/>
<path d="M3263 3175 c-26 -18 -22 -37 15 -78 l26 -27 -32 -63 c-18 -34 -32
-69 -32 -78 0 -24 32 -119 40 -119 4 0 14 18 23 41 13 32 20 39 34 35 14 -5
21 2 30 24 12 33 42 40 63 15 11 -14 16 -12 40 16 22 27 31 31 58 27 l32 -5
-27 30 c-16 16 -56 43 -91 60 -63 31 -132 94 -132 122 0 19 -20 19 -47 0z"/>
<path d="M2170 3117 c0 -7 9 -37 20 -67 11 -30 20 -56 20 -57 0 -2 4 -3 9 -3
11 0 44 117 36 130 -9 15 -85 13 -85 -3z"/>
<path d="M2088 3063 c-41 -45 -42 -61 -5 -76 18 -8 47 -17 66 -20 33 -7 33 -7
27 24 -6 34 -43 99 -55 99 -4 0 -19 -12 -33 -27z"/>
<path d="M2271 3048 c-28 -63 -34 -88 -22 -88 6 0 35 9 66 21 39 15 55 26 55
39 0 18 -53 70 -71 70 -6 0 -18 -19 -28 -42z"/>
<path d="M1646 3061 c-3 -5 7 -41 23 -81 l29 -72 -36 -14 c-125 -49 -191 -102
-232 -189 -27 -57 -30 -72 -30 -163 0 -112 19 -189 63 -259 41 -64 84 -99 186
-150 127 -63 173 -65 285 -8 114 58 154 102 190 210 12 35 7 179 -9 228 -53
172 -187 306 -337 337 -32 6 -58 12 -58 13 0 1 -4 28 -10 61 -11 70 -46 117
-64 87z"/>
<path d="M2739 2979 c-136 -11 -257 -97 -320 -224 -32 -66 -34 -75 -34 -180 0
-103 2 -114 32 -177 40 -85 97 -146 175 -189 62 -34 64 -34 193 -34 127 0 131
1 193 33 34 18 89 59 121 91 80 80 101 137 101 276 0 138 -20 195 -100 276
-96 98 -216 141 -361 128z m115 -61 c16 -9 18 -18 12 -65 -7 -58 -48 -186 -67
-209 -24 -29 -31 -17 -85 136 -40 112 -42 133 -11 148 24 13 120 6 151 -10z
m129 -40 c54 -36 117 -105 117 -125 0 -11 -8 -27 -19 -37 -21 -19 -173 -83
-220 -92 -28 -6 -31 -4 -31 20 0 30 44 165 71 219 22 43 38 46 82 15z m-342
-19 c29 -29 87 -155 95 -207 l7 -44 -49 6 -49 6 40 -13 c64 -20 58 -42 -22
-79 -37 -17 -93 -39 -123 -50 l-55 -19 -22 26 c-18 21 -23 38 -23 84 0 71 14
86 68 78 109 -18 109 -18 52 3 -30 12 -63 24 -72 27 -44 14 6 118 87 182 34
26 40 26 66 0z m498 -210 c31 -89 -4 -164 -71 -154 -32 5 -32 5 10 -14 23 -12
42 -27 42 -36 0 -62 -120 -186 -163 -169 -16 6 -70 112 -102 197 -24 64 -15
69 87 45 84 -19 122 -19 45 1 -62 15 -137 48 -137 60 0 22 190 99 247 100 26
1 33 -4 42 -30z m-385 -127 c7 -12 -37 -172 -63 -226 -21 -43 -26 -47 -49 -41
-55 14 -152 110 -152 151 0 27 37 49 160 95 81 30 96 33 104 21z m91 -84 c18
-40 41 -99 51 -131 23 -74 14 -84 -82 -93 -76 -7 -104 6 -104 47 0 33 53 205
73 237 16 24 29 11 62 -60z"/>
<path d="M2010 2943 c0 -55 13 -60 76 -38 32 12 59 25 61 31 2 5 -21 15 -50
22 -78 18 -87 16 -87 -15z"/>
<path d="M3502 2948 c-7 -7 -12 -17 -12 -23 0 -7 -9 -20 -20 -30 -19 -17 -21
-17 -38 -2 -27 25 -32 21 -32 -23 0 -22 -3 -40 -6 -40 -3 0 -19 9 -35 20 l-28
21 -22 -43 c-21 -41 -22 -56 -24 -328 -2 -321 -13 -413 -80 -635 -74 -246 -74
-249 -53 -333 16 -65 84 -131 159 -155 69 -21 158 -22 207 -2 66 28 157 129
221 247 169 308 154 630 -53 1140 -44 109 -81 168 -104 168 -10 0 -27 7 -38
15 -23 18 -27 18 -42 3z"/>
<path d="M2108 2873 c-32 -14 -58 -30 -58 -35 0 -16 57 -68 74 -68 9 0 22 12
29 28 18 33 31 102 20 101 -4 0 -34 -12 -65 -26z"/>
<path d="M2246 2879 c5 -8 9 -16 9 -19 0 -19 40 -90 50 -90 15 0 75 65 75 81
0 13 -43 28 -98 36 -37 5 -44 4 -36 -8z"/>
<path d="M2186 2823 c-9 -26 -16 -57 -16 -70 0 -21 5 -23 45 -23 25 0 45 4 45
10 0 14 -48 130 -55 130 -2 0 -10 -21 -19 -47z"/>
<path d="M2237 2621 l-49 -6 21 -27 c25 -31 26 -51 6 -108 -18 -52 -19 -122
-1 -173 15 -41 62 -107 76 -107 13 0 60 53 60 67 0 7 -18 16 -40 19 -57 9 -50
24 11 24 l52 0 -6 44 c-4 24 -22 74 -42 110 -19 36 -35 73 -35 82 0 9 11 32
26 51 l25 33 -28 -2 c-15 0 -50 -4 -76 -7z"/>
<path d="M2440 2158 c-70 -19 -115 -85 -107 -155 6 -57 49 -112 104 -132 53
-19 104 -5 163 44 23 19 51 35 61 35 30 0 130 -43 194 -84 54 -35 56 -36 36
-10 -12 15 -19 29 -16 32 5 5 20 -5 87 -57 l43 -35 -43 46 c-24 25 -39 48 -34
52 5 3 33 1 62 -4 29 -6 64 -10 79 -9 19 1 15 3 -14 9 -70 14 -155 41 -155 49
0 5 30 18 68 30 65 21 66 21 20 16 -50 -5 -68 6 -48 30 15 18 16 18 -44 0 -51
-16 -145 -19 -206 -9 -29 6 -42 17 -75 68 -52 79 -104 104 -175 84z"/>
<path d="M2050 2121 c-27 -67 52 -169 113 -145 13 4 14 10 7 24 -17 31 -11 44
28 68 41 26 66 57 57 72 -10 16 -35 11 -86 -17 l-49 -26 -21 26 c-26 34 -34
34 -49 -2z"/>
<path d="M1642 1977 c-40 -48 19 -166 84 -167 29 0 34 8 21 37 -10 23 -9 28
13 42 109 70 102 138 -7 74 l-46 -27 -21 27 c-25 31 -29 32 -44 14z"/>
<path d="M1920 1890 c0 -41 34 -141 73 -215 59 -110 214 -248 362 -322 70 -35
92 -41 178 -49 139 -12 278 39 372 135 69 70 115 124 115 134 0 24 -41 -3
-113 -71 -97 -93 -148 -127 -229 -153 -75 -24 -120 -24 -223 0 -109 24 -162
53 -282 150 -90 72 -198 249 -225 369 -14 57 -28 69 -28 22z"/>
<path d="M2000 1895 c0 -42 65 -205 104 -260 72 -100 203 -191 340 -235 57
-19 84 -22 156 -18 78 5 96 9 152 41 34 19 75 48 89 64 25 26 99 136 99 147 0
2 -16 10 -36 16 -32 11 -38 10 -46 -4 -13 -23 -34 -20 -76 12 -20 16 -80 43
-132 60 -115 37 -322 101 -347 107 -10 3 -56 16 -103 31 -85 26 -187 54 -195
54 -3 0 -5 -7 -5 -15z m200 -96 c0 -15 -43 -49 -62 -49 -23 0 -34 26 -18 45
19 23 80 26 80 4z m77 -144 c8 -21 -25 -55 -54 -55 -33 0 -30 35 5 54 35 19
41 19 49 1z m124 -108 c-12 -31 -48 -37 -58 -10 -4 11 5 26 28 47 32 28 34 29
37 10 2 -11 -2 -32 -7 -47z m303 21 c20 -28 20 -54 1 -62 -18 -6 -45 30 -45
61 0 29 24 30 44 1z m-144 -63 c0 -27 -24 -49 -45 -41 -19 7 -19 36 1 64 13
18 19 21 30 11 8 -6 14 -22 14 -34z"/>
<path d="M609 1007 c-29 -22 -39 -52 -29 -88 6 -19 37 -146 71 -284 67 -280
73 -290 143 -290 72 0 88 24 146 215 17 58 36 120 42 138 5 17 13 32 17 32 4
0 31 -75 60 -167 56 -178 84 -223 138 -223 36 0 77 25 91 55 9 20 82 310 106
425 3 14 11 48 17 77 6 29 9 62 6 75 -15 56 -95 60 -122 7 -9 -16 -22 -59 -29
-96 -30 -145 -58 -269 -66 -282 -5 -10 -30 54 -70 180 -63 198 -85 239 -129
239 -41 0 -68 -37 -101 -142 -73 -234 -92 -288 -101 -282 -5 3 -9 12 -9 20 0
9 -9 55 -20 102 -12 48 -28 119 -37 157 -23 101 -31 121 -59 134 -31 14 -45
14 -65 -2z"/>
<path d="M4150 1009 c-60 -24 -56 -48 60 -337 55 -137 100 -254 100 -260 0
-24 52 -72 79 -72 38 0 56 17 79 75 109 269 192 488 197 515 3 18 3 40 0 50
-8 26 -68 45 -94 30 -20 -10 -61 -78 -61 -101 0 -6 -6 -25 -14 -42 -15 -34
-70 -179 -88 -234 -6 -18 -14 -33 -18 -33 -4 0 -22 41 -40 92 -90 250 -129
329 -162 327 -7 0 -24 -5 -38 -10z"/>
<path d="M1613 842 c-52 -21 -83 -48 -119 -102 -24 -36 -28 -53 -31 -130 -2
-80 0 -93 25 -142 48 -91 160 -147 239 -119 21 8 46 22 57 33 19 20 19 20 41
-8 16 -20 31 -27 55 -27 53 0 60 19 62 177 5 267 4 283 -16 305 -27 29 -71 27
-101 -4 -16 -18 -26 -22 -30 -14 -11 17 -86 49 -115 48 -14 0 -44 -8 -67 -17z
m124 -122 c42 -15 66 -61 65 -129 0 -53 -3 -58 -41 -92 -38 -34 -44 -36 -79
-28 -70 15 -107 96 -82 176 24 74 67 97 137 73z"/>
<path d="M2310 853 c-8 -3 -33 -14 -54 -24 -39 -19 -40 -19 -61 1 -29 27 -79
26 -99 -2 -13 -19 -16 -58 -16 -233 1 -221 3 -235 47 -249 22 -7 62 8 75 28 4
6 8 73 8 149 0 103 4 145 15 167 28 55 85 66 132 26 28 -24 28 -25 33 -178 3
-84 9 -159 13 -166 14 -21 54 -32 81 -22 36 13 46 59 46 214 -1 181 -19 234
-90 271 -30 16 -109 27 -130 18z"/>
<path d="M2876 850 c-16 -5 -38 -18 -51 -30 l-21 -20 -24 25 c-31 33 -82 34
-104 3 -13 -19 -16 -58 -16 -231 l0 -208 25 -25 c29 -29 70 -26 98 7 14 18 17
43 17 170 0 140 1 149 22 169 13 11 33 23 45 27 29 7 79 -13 89 -35 5 -10 11
-86 14 -170 5 -145 6 -155 28 -172 28 -23 70 -18 95 12 17 20 18 39 15 198 -3
161 -5 178 -26 211 -37 61 -130 91 -206 69z"/>
<path d="M3374 844 c-159 -57 -208 -305 -85 -432 37 -38 111 -72 157 -72 29 0
87 25 103 44 12 14 17 12 41 -14 44 -48 92 -35 109 28 6 20 9 121 8 223 -2
168 -4 189 -21 208 -27 29 -71 27 -101 -4 -16 -18 -26 -22 -30 -14 -11 17 -86
49 -115 48 -14 0 -43 -7 -66 -15z m125 -125 c81 -28 91 -182 16 -229 -18 -11
-46 -20 -63 -20 -92 0 -133 151 -61 229 30 33 56 38 108 20z"/>
</g>
</svg>
